<svg id="visual" viewBox="0 0 64 48" width="64" height="48" xmlns="http://www.w3.org/2000/svg" xmlns:xlink="http://www.w3.org/1999/xlink" version="1.1"><rect x="0" y="0" width="64" height="48" fill="#4F1271"></rect><defs><linearGradient id="grad1_0" x1="25%" y1="100%" x2="100%" y2="0%"><stop offset="23.333333333333336%" stop-color="#4f1271" stop-opacity="1"></stop><stop offset="76.66666666666666%" stop-color="#4f1271" stop-opacity="1"></stop></linearGradient></defs><defs><linearGradient id="grad2_0" x1="0%" y1="100%" x2="75%" y2="0%"><stop offset="23.333333333333336%" stop-color="#4f1271" stop-opacity="1"></stop><stop offset="76.66666666666666%" stop-color="#4f1271" stop-opacity="1"></stop></linearGradient></defs><g transform="translate(64, 48)"><path d="M-16 0C-14.6 -2.2 -13.3 -4.5 -12.1 -7C-11 -9.5 -10 -12.3 -8 -13.9C-6 -15.4 -3 -15.7 0 -16L0 0Z" fill="#FDE4B0"></path></g><g transform="translate(0, 0)"><path d="M16 0C15.6 2.9 15.3 5.8 13.9 8C12.4 10.2 10 11.8 7.5 13C5 14.2 2.5 15.1 0 16L0 0Z" fill="#FDE4B0"></path></g></svg>