<svg id="visual" viewBox="0 0 960 540" width="960" height="540" xmlns="http://www.w3.org/2000/svg" xmlns:xlink="http://www.w3.org/1999/xlink" version="1.1"><rect x="0" y="0" width="960" height="540" fill="#4F1271"></rect><defs><linearGradient id="grad1_0" x1="43.8%" y1="0%" x2="100%" y2="100%"><stop offset="14.444444444444446%" stop-color="#4f1271" stop-opacity="1"></stop><stop offset="85.55555555555554%" stop-color="#4f1271" stop-opacity="1"></stop></linearGradient></defs><defs><linearGradient id="grad2_0" x1="0%" y1="0%" x2="56.3%" y2="100%"><stop offset="14.444444444444446%" stop-color="#4f1271" stop-opacity="1"></stop><stop offset="85.55555555555554%" stop-color="#4f1271" stop-opacity="1"></stop></linearGradient></defs><g transform="translate(960, 0)"><path d="M0 216C-37.8 210.4 -75.6 204.7 -108 187.1C-140.4 169.4 -167.4 139.7 -184.5 106.5C-201.6 73.3 -208.8 36.7 -216 0L0 0Z" fill="#FDE4B0"></path></g><g transform="translate(0, 540)"><path d="M0 -216C39.7 -211.4 79.3 -206.9 108 -187.1C136.7 -167.3 154.4 -132.2 170.6 -98.5C186.8 -64.8 201.4 -32.4 216 0L0 0Z" fill="#FDE4B0"></path></g></svg>