<svg id="visual" viewBox="0 0 900 600" width="900" height="600" xmlns="http://www.w3.org/2000/svg" xmlns:xlink="http://www.w3.org/1999/xlink" version="1.1"><rect x="0" y="0" width="900" height="600" fill="#4F1271"></rect><defs><linearGradient id="grad1_0" x1="33.3%" y1="0%" x2="100%" y2="100%"><stop offset="20%" stop-color="#4f1271" stop-opacity="1"></stop><stop offset="80%" stop-color="#4f1271" stop-opacity="1"></stop></linearGradient></defs><defs><linearGradient id="grad2_0" x1="0%" y1="0%" x2="66.7%" y2="100%"><stop offset="20%" stop-color="#4f1271" stop-opacity="1"></stop><stop offset="80%" stop-color="#4f1271" stop-opacity="1"></stop></linearGradient></defs><g transform="translate(900, 0)"><path d="M0 216.3C-35.8 207.6 -71.7 198.8 -105 181.9C-138.3 164.9 -169.2 139.8 -187.3 108.2C-205.5 76.5 -210.9 38.2 -216.3 0L0 0Z" fill="#FDE4B0"></path></g><g transform="translate(0, 600)"><path d="M0 -216.3C35.3 -206.6 70.6 -196.9 104 -180.1C137.4 -163.3 168.9 -139.4 187.3 -108.2C205.8 -77 211 -38.5 216.3 0L0 0Z" fill="#FDE4B0"></path></g></svg>